# Blender v2.78 (sub 3) OBJ File: 'Illuminati.blend'
# www.blender.org
o Cube.009_Cube.011
v -0.450000 -0.500000 0.450000
v -0.080375 0.267119 0.080375
v -0.450000 -0.500000 -0.450000
v -0.080375 0.267119 -0.080375
v 0.450000 -0.500000 0.450000
v 0.080375 0.267119 0.080375
v 0.450000 -0.500000 -0.450000
v 0.080375 0.267119 -0.080375
v 0.117337 0.190407 -0.064300
v 0.413037 -0.423288 -0.360000
v 0.413037 -0.423288 0.360000
v 0.117337 0.190407 0.064300
v -0.064300 0.190407 -0.117337
v -0.360000 -0.423288 -0.413037
v 0.360000 -0.423288 -0.413037
v 0.064300 0.190407 -0.117337
v -0.360000 -0.423288 0.413037
v -0.064300 0.190407 0.117337
v 0.064300 0.190407 0.117337
v 0.360000 -0.423288 0.413037
v 0.072293 0.168703 -0.064300
v 0.367994 -0.444992 -0.360000
v 0.367994 -0.444992 0.360000
v 0.072293 0.168703 0.064300
v -0.360000 -0.444992 0.367994
v -0.064300 0.168703 0.072293
v 0.064300 0.168703 0.072293
v 0.360000 -0.444992 0.367994
v -0.064300 0.168703 -0.072293
v -0.360000 -0.444992 -0.367994
v 0.360000 -0.444992 -0.367994
v 0.064300 0.168703 -0.072293
v -0.413037 -0.423288 -0.360000
v -0.413037 -0.423288 0.360000
v -0.117337 0.190407 0.064300
v -0.117337 0.190407 -0.064300
v -0.367994 -0.444992 -0.360000
v -0.367994 -0.444992 0.360000
v -0.072293 0.168703 0.064300
v -0.072293 0.168703 -0.064300
vt 0.667224 0.972545
vt 0.430517 0.981260
vt 0.441783 0.882808
vt 0.650068 0.867540
vt 0.430517 0.981260
vt 0.007389 0.020776
vt 0.107833 0.114177
vt 0.441783 0.882807
vt 0.667223 0.972545
vt 0.430517 0.981260
vt 0.441783 0.882807
vt 0.650068 0.867540
vt 0.007389 0.020776
vt 0.982882 0.020776
vt 0.902990 0.102417
vt 0.107833 0.114177
vt 0.107833 0.114177
vt 0.191728 0.154417
vt 0.464031 0.810209
vt 0.298130 0.894676
vt 0.135773 0.894676
vt 0.135773 0.732319
vt 0.298130 0.732319
vt 0.107832 0.114177
vt 0.191728 0.154417
vt 0.464031 0.810209
vt 0.982882 0.020776
vt 0.902990 0.102418
vt 0.007389 0.020776
vt 0.902990 0.102417
vt 0.831964 0.171156
vt 0.191728 0.154417
vt 0.982883 0.020776
vt 0.667223 0.972545
vt 0.650068 0.867540
vt 0.831964 0.171156
vt 0.191728 0.154417
vt 0.667224 0.972545
vt 0.430517 0.981260
vt 0.441783 0.882807
vt 0.650068 0.867540
vt 0.821683 0.177946
vt 0.571862 0.753471
vt 0.463216 0.753471
vt 0.213395 0.177946
vt 0.831964 0.171156
vt 0.604118 0.809326
vt 0.821683 0.177946
vt 0.571862 0.753471
vt 0.463216 0.753471
vt 0.213395 0.177946
vt 0.464031 0.810209
vt 0.604118 0.809326
vt 0.821683 0.177946
vt 0.571862 0.753471
vt 0.463215 0.753471
vt 0.213395 0.177946
vt 0.464031 0.810209
vt 0.604118 0.809326
vt 0.007389 0.020776
vt 0.982882 0.020777
vt 0.902990 0.102418
vt 0.821683 0.177946
vt 0.571862 0.753471
vt 0.463216 0.753471
vt 0.213395 0.177946
vt 0.604118 0.809326
vt 0.831964 0.171156
vn -0.9009 0.4341 0.0000
vn 0.0000 0.4341 -0.9009
vn 0.9009 0.4341 0.0000
vn 0.0000 0.4341 0.9009
vn -0.1728 -0.3587 0.9173
vn 0.0000 1.0000 0.0000
vn 0.1728 -0.3587 -0.9173
vn 0.0000 0.9009 0.4341
vn 0.0000 0.9009 -0.4341
vn -0.4341 0.9009 0.0000
vn 0.4341 -0.9009 0.0000
vn 0.1728 -0.3587 0.9173
vn 0.9173 -0.3587 0.1728
vn 0.0000 -0.9009 0.4341
vn -0.9173 -0.3587 0.1728
vn 0.0000 -0.9009 -0.4341
vn 0.9173 -0.3587 -0.1728
vn -0.9173 -0.3587 -0.1728
vn -0.1728 -0.3587 -0.9173
vn -0.4341 -0.9009 0.0000
vn 0.4341 0.9009 0.0000
g Cube.009_Cube.011_None
s off
f 2/1/1 4/2/1 36/3/1 35/4/1
f 8/5/2 7/6/2 15/7/2 16/8/2
f 8/9/3 6/10/3 12/11/3 9/12/3
f 1/13/4 5/14/4 20/15/4 17/16/4
f 36/3/5 33/17/5 37/18/5 40/19/5
f 8/20/6 4/21/6 2/22/6 6/23/6
f 12/11/7 11/24/7 23/25/7 24/26/7
f 7/27/3 8/9/3 9/12/3 10/28/3
f 6/10/3 5/29/3 11/24/3 12/11/3
f 5/29/3 7/27/3 10/28/3 11/24/3
f 15/7/8 14/30/8 30/31/8 31/32/8
f 7/6/2 3/33/2 14/30/2 15/7/2
f 4/34/2 8/5/2 16/8/2 13/35/2
f 3/33/2 4/34/2 13/35/2 14/30/2
f 17/16/9 20/15/9 28/36/9 25/37/9
f 6/38/4 2/39/4 18/40/4 19/41/4
f 5/14/4 6/38/4 19/41/4 20/15/4
f 2/39/4 1/13/4 17/16/4 18/40/4
f 22/42/3 21/43/3 24/44/3 23/45/3
f 11/24/10 10/28/10 22/46/10 23/25/10
f 9/12/11 12/11/11 24/26/11 21/47/11
f 10/28/12 9/12/12 21/47/12 22/46/12
f 28/48/4 27/49/4 26/50/4 25/51/4
f 18/40/13 17/16/13 25/37/13 26/52/13
f 19/41/14 18/40/14 26/52/14 27/53/14
f 20/15/15 19/41/15 27/53/15 28/36/15
f 30/54/2 29/55/2 32/56/2 31/57/2
f 13/35/16 16/8/16 32/58/16 29/59/16
f 14/30/17 13/35/17 29/59/17 30/31/17
f 16/8/18 15/7/18 31/32/18 32/58/18
f 3/60/1 1/61/1 34/62/1 33/17/1
f 4/2/1 3/60/1 33/17/1 36/3/1
f 1/61/1 2/1/1 35/4/1 34/62/1
f 38/63/1 39/64/1 40/65/1 37/66/1
f 34/62/19 35/4/19 39/67/19 38/68/19
f 35/4/20 36/3/20 40/19/20 39/67/20
f 33/17/21 34/62/21 38/68/21 37/18/21
